# xmcd
#
# Track frame offsets: 
#        150
#        38550
#        63236
#        82819
#        105654
#        124219
#        140994
#        174457
#        196290
#        226242
#        251586
#        279233
#        309184
#
# Disc length: 4572 seconds
#
# Revision: 0
# Processed by: cddbd v1.5.2PL0 Copyright (c) Steve Scherf et al.
# Submitted via: ExactAudioCopy v1.0b1
#
DISCID=a711da0d
DTITLE=Various Artist - Hed Kandi 105 - The Remix 2011 CD Three Sunday Mornin
DTITLE=g
DYEAR=2010
DGENRE=House
TTITLE0=Dannii Minogue - More More More (Super Red Berry Mix)
TTITLE1=Jason Borne - Written In The Stars (Super Red Berry Mix)
TTITLE2=Adeva - In and Out Of My Life (Shield Vs Robytek 2010 Remix)
TTITLE3=Booka Shade - Night Falls vs. Plastic Operator - I Won't Back 
TTITLE3=Down
TTITLE4=Mick Lion Feat. Chris Ming - Forget You (Futurdisko 2011 Mix)
TTITLE5=Craig Jensen Feat. Gina Foster - Club Lonely (Volante Remix)
TTITLE6=Jamie Jones - Summertime (Rob Mello No Ears Mix)
TTITLE7=Phonat - Love Hits The Fan (DCUP Remix)
TTITLE8=Alfred Azzetto - Colors (Walterino Main Mix) vs. Kristine W - 
TTITLE8=Feel What You Want (Acapella)
TTITLE9=Tensnake - Coma Cat (Round Table Knights Remix)
TTITLE10=David Penn and Rober Gaez - Sunshine People (UNER Dublected Rem
TTITLE10=ix)
TTITLE11=Rasmus Faber and Alf Tumble Feat. Candi Staton - Wilder Side (T
TTITLE11=ong and Rogers Wonderland Club Mix)
TTITLE12=Dido - Everything To Lose (ATFC Remix)
EXTD=
EXTT0=
EXTT1=
EXTT2=
EXTT3=
EXTT4=
EXTT5=
EXTT6=
EXTT7=
EXTT8=
EXTT9=
EXTT10=
EXTT11=
EXTT12=
PLAYORDER=
